<mxfile host="app.diagrams.net" modified="2022-08-23T09:13:02.761Z" agent="5.0 (Macintosh; Intel Mac OS X 10_15_6) AppleWebKit/537.36 (KHTML, like Gecko) Chrome/78.0.3904.108 Safari/537.36" etag="dTfi-5QDd0uSz_CBy0ol" version="20.2.0" type="github">
  <diagram id="eUS22SZEv_Oih5AvH8_g" name="第 1 页">
    <mxGraphModel dx="2706" dy="1344" grid="1" gridSize="10" guides="1" tooltips="1" connect="1" arrows="1" fold="1" page="1" pageScale="1" pageWidth="827" pageHeight="1169" math="0" shadow="0">
      <root>
        <mxCell id="0" />
        <mxCell id="1" parent="0" />
        <mxCell id="HWcITHrnJIwptDQPcH0C-3" value="" style="edgeStyle=orthogonalEdgeStyle;rounded=0;orthogonalLoop=1;jettySize=auto;html=1;" edge="1" parent="1" source="HWcITHrnJIwptDQPcH0C-1" target="HWcITHrnJIwptDQPcH0C-2">
          <mxGeometry relative="1" as="geometry" />
        </mxCell>
        <mxCell id="HWcITHrnJIwptDQPcH0C-1" value="&lt;font style=&quot;font-size: 24px;&quot;&gt;讲师&lt;/font&gt;" style="shape=umlActor;verticalLabelPosition=bottom;verticalAlign=top;html=1;outlineConnect=0;" vertex="1" parent="1">
          <mxGeometry x="170" y="210" width="30" height="60" as="geometry" />
        </mxCell>
        <mxCell id="HWcITHrnJIwptDQPcH0C-7" value="" style="edgeStyle=orthogonalEdgeStyle;rounded=0;orthogonalLoop=1;jettySize=auto;html=1;fontSize=24;" edge="1" parent="1" source="HWcITHrnJIwptDQPcH0C-2" target="HWcITHrnJIwptDQPcH0C-6">
          <mxGeometry relative="1" as="geometry" />
        </mxCell>
        <mxCell id="HWcITHrnJIwptDQPcH0C-2" value="&lt;font style=&quot;font-size: 24px;&quot;&gt;获取&lt;br&gt;练习列表&lt;/font&gt;" style="whiteSpace=wrap;html=1;verticalAlign=top;" vertex="1" parent="1">
          <mxGeometry x="340" y="210" width="120" height="60" as="geometry" />
        </mxCell>
        <mxCell id="HWcITHrnJIwptDQPcH0C-11" value="" style="edgeStyle=orthogonalEdgeStyle;rounded=0;orthogonalLoop=1;jettySize=auto;html=1;fontSize=24;" edge="1" parent="1" source="HWcITHrnJIwptDQPcH0C-6" target="HWcITHrnJIwptDQPcH0C-10">
          <mxGeometry relative="1" as="geometry" />
        </mxCell>
        <mxCell id="HWcITHrnJIwptDQPcH0C-6" value="&lt;span style=&quot;font-size: 24px;&quot;&gt;选中列表&lt;br&gt;某一练习&lt;br&gt;&lt;/span&gt;" style="whiteSpace=wrap;html=1;verticalAlign=top;" vertex="1" parent="1">
          <mxGeometry x="540" y="210" width="120" height="60" as="geometry" />
        </mxCell>
        <mxCell id="HWcITHrnJIwptDQPcH0C-13" value="" style="edgeStyle=orthogonalEdgeStyle;rounded=0;orthogonalLoop=1;jettySize=auto;html=1;fontSize=24;" edge="1" parent="1" source="HWcITHrnJIwptDQPcH0C-10" target="HWcITHrnJIwptDQPcH0C-12">
          <mxGeometry relative="1" as="geometry" />
        </mxCell>
        <mxCell id="HWcITHrnJIwptDQPcH0C-10" value="&lt;div style=&quot;font-size: 24px;&quot;&gt;&lt;span style=&quot;background-color: initial; line-height: 1;&quot;&gt;练习&lt;/span&gt;&lt;/div&gt;&lt;div style=&quot;font-size: 24px;&quot;&gt;&lt;span style=&quot;background-color: initial; line-height: 1;&quot;&gt;数据&lt;/span&gt;&lt;br&gt;&lt;/div&gt;" style="ellipse;shape=cloud;whiteSpace=wrap;html=1;verticalAlign=top;align=center;" vertex="1" parent="1">
          <mxGeometry x="740" y="200" width="120" height="80" as="geometry" />
        </mxCell>
        <mxCell id="HWcITHrnJIwptDQPcH0C-15" value="" style="edgeStyle=orthogonalEdgeStyle;rounded=0;orthogonalLoop=1;jettySize=auto;html=1;fontSize=24;" edge="1" parent="1" source="HWcITHrnJIwptDQPcH0C-12" target="HWcITHrnJIwptDQPcH0C-14">
          <mxGeometry relative="1" as="geometry" />
        </mxCell>
        <mxCell id="HWcITHrnJIwptDQPcH0C-12" value="&lt;font style=&quot;font-size: 24px;&quot;&gt;开始答题&lt;/font&gt;" style="whiteSpace=wrap;html=1;verticalAlign=top;" vertex="1" parent="1">
          <mxGeometry x="940" y="210" width="120" height="60" as="geometry" />
        </mxCell>
        <mxCell id="HWcITHrnJIwptDQPcH0C-28" value="" style="edgeStyle=orthogonalEdgeStyle;rounded=0;orthogonalLoop=1;jettySize=auto;html=1;fontSize=24;entryX=0.5;entryY=0;entryDx=0;entryDy=0;entryPerimeter=0;" edge="1" parent="1" source="HWcITHrnJIwptDQPcH0C-14" target="HWcITHrnJIwptDQPcH0C-20">
          <mxGeometry relative="1" as="geometry">
            <mxPoint x="1200" y="350" as="targetPoint" />
            <Array as="points">
              <mxPoint x="1200" y="380" />
              <mxPoint x="185" y="380" />
            </Array>
          </mxGeometry>
        </mxCell>
        <mxCell id="HWcITHrnJIwptDQPcH0C-14" value="云教室&lt;br&gt;通知学生" style="whiteSpace=wrap;html=1;verticalAlign=top;" vertex="1" parent="1">
          <mxGeometry x="1140" y="210" width="120" height="60" as="geometry" />
        </mxCell>
        <mxCell id="HWcITHrnJIwptDQPcH0C-30" value="" style="edgeStyle=orthogonalEdgeStyle;rounded=0;orthogonalLoop=1;jettySize=auto;html=1;fontSize=24;" edge="1" parent="1" source="HWcITHrnJIwptDQPcH0C-20" target="HWcITHrnJIwptDQPcH0C-29">
          <mxGeometry relative="1" as="geometry" />
        </mxCell>
        <mxCell id="HWcITHrnJIwptDQPcH0C-20" value="学生" style="shape=umlActor;verticalLabelPosition=bottom;verticalAlign=top;html=1;outlineConnect=0;labelBackgroundColor=#ffffff;fontSize=24;" vertex="1" parent="1">
          <mxGeometry x="170" y="500" width="30" height="60" as="geometry" />
        </mxCell>
        <mxCell id="HWcITHrnJIwptDQPcH0C-32" value="" style="edgeStyle=orthogonalEdgeStyle;rounded=0;orthogonalLoop=1;jettySize=auto;html=1;fontSize=24;" edge="1" parent="1" source="HWcITHrnJIwptDQPcH0C-29" target="HWcITHrnJIwptDQPcH0C-31">
          <mxGeometry relative="1" as="geometry" />
        </mxCell>
        <mxCell id="HWcITHrnJIwptDQPcH0C-29" value="开始&lt;br&gt;考试" style="ellipse;shape=cloud;whiteSpace=wrap;html=1;fontSize=24;verticalAlign=top;labelBackgroundColor=#ffffff;" vertex="1" parent="1">
          <mxGeometry x="340" y="490" width="120" height="80" as="geometry" />
        </mxCell>
        <mxCell id="HWcITHrnJIwptDQPcH0C-34" value="" style="edgeStyle=orthogonalEdgeStyle;rounded=0;orthogonalLoop=1;jettySize=auto;html=1;fontSize=24;" edge="1" parent="1" source="HWcITHrnJIwptDQPcH0C-31" target="HWcITHrnJIwptDQPcH0C-33">
          <mxGeometry relative="1" as="geometry" />
        </mxCell>
        <mxCell id="HWcITHrnJIwptDQPcH0C-31" value="单题&lt;br&gt;提交" style="ellipse;shape=cloud;whiteSpace=wrap;html=1;fontSize=24;verticalAlign=top;labelBackgroundColor=#ffffff;" vertex="1" parent="1">
          <mxGeometry x="540" y="490" width="120" height="80" as="geometry" />
        </mxCell>
        <mxCell id="HWcITHrnJIwptDQPcH0C-38" value="" style="edgeStyle=orthogonalEdgeStyle;rounded=0;orthogonalLoop=1;jettySize=auto;html=1;fontSize=24;entryX=0.5;entryY=0;entryDx=0;entryDy=0;entryPerimeter=0;" edge="1" parent="1" source="HWcITHrnJIwptDQPcH0C-33" target="HWcITHrnJIwptDQPcH0C-35">
          <mxGeometry relative="1" as="geometry">
            <mxPoint x="800" y="660" as="targetPoint" />
            <Array as="points">
              <mxPoint x="800" y="680" />
              <mxPoint x="185" y="680" />
            </Array>
          </mxGeometry>
        </mxCell>
        <mxCell id="HWcITHrnJIwptDQPcH0C-33" value="交卷" style="ellipse;shape=cloud;whiteSpace=wrap;html=1;fontSize=24;verticalAlign=top;labelBackgroundColor=#ffffff;" vertex="1" parent="1">
          <mxGeometry x="740" y="490" width="120" height="80" as="geometry" />
        </mxCell>
        <mxCell id="HWcITHrnJIwptDQPcH0C-44" value="" style="edgeStyle=orthogonalEdgeStyle;rounded=0;orthogonalLoop=1;jettySize=auto;html=1;fontSize=24;" edge="1" parent="1" source="HWcITHrnJIwptDQPcH0C-35" target="HWcITHrnJIwptDQPcH0C-43">
          <mxGeometry relative="1" as="geometry" />
        </mxCell>
        <mxCell id="HWcITHrnJIwptDQPcH0C-35" value="&lt;font style=&quot;font-size: 24px;&quot;&gt;讲师&lt;/font&gt;" style="shape=umlActor;verticalLabelPosition=bottom;verticalAlign=top;html=1;outlineConnect=0;" vertex="1" parent="1">
          <mxGeometry x="170" y="780" width="30" height="60" as="geometry" />
        </mxCell>
        <mxCell id="HWcITHrnJIwptDQPcH0C-39" value="&lt;font style=&quot;font-size: 24px;&quot;&gt;答题&lt;br&gt;结果&lt;/font&gt;" style="ellipse;shape=cloud;whiteSpace=wrap;html=1;verticalAlign=top;" vertex="1" parent="1">
          <mxGeometry x="600" y="775" width="120" height="70" as="geometry" />
        </mxCell>
        <mxCell id="HWcITHrnJIwptDQPcH0C-45" style="edgeStyle=orthogonalEdgeStyle;rounded=0;orthogonalLoop=1;jettySize=auto;html=1;exitX=0.875;exitY=0.5;exitDx=0;exitDy=0;exitPerimeter=0;fontSize=24;" edge="1" parent="1" source="HWcITHrnJIwptDQPcH0C-43" target="HWcITHrnJIwptDQPcH0C-39">
          <mxGeometry relative="1" as="geometry" />
        </mxCell>
        <mxCell id="HWcITHrnJIwptDQPcH0C-43" value="&lt;font style=&quot;font-size: 24px;&quot;&gt;结束&lt;br&gt;考试&lt;/font&gt;" style="ellipse;shape=cloud;whiteSpace=wrap;html=1;verticalAlign=top;" vertex="1" parent="1">
          <mxGeometry x="354" y="770" width="120" height="80" as="geometry" />
        </mxCell>
        <mxCell id="HWcITHrnJIwptDQPcH0C-46" value="" style="endArrow=classic;html=1;rounded=0;fontSize=24;entryX=0.55;entryY=0.95;entryDx=0;entryDy=0;entryPerimeter=0;" edge="1" parent="1" source="HWcITHrnJIwptDQPcH0C-35" target="HWcITHrnJIwptDQPcH0C-39">
          <mxGeometry width="50" height="50" relative="1" as="geometry">
            <mxPoint x="270" y="930" as="sourcePoint" />
            <mxPoint x="320" y="880" as="targetPoint" />
            <Array as="points">
              <mxPoint x="180" y="920" />
              <mxPoint x="666" y="920" />
            </Array>
          </mxGeometry>
        </mxCell>
        <mxCell id="HWcITHrnJIwptDQPcH0C-48" value="" style="endArrow=classic;html=1;rounded=0;fontSize=24;exitX=0.4;exitY=0.1;exitDx=0;exitDy=0;exitPerimeter=0;entryX=0.8;entryY=0.8;entryDx=0;entryDy=0;entryPerimeter=0;" edge="1" parent="1" source="HWcITHrnJIwptDQPcH0C-43" target="HWcITHrnJIwptDQPcH0C-33">
          <mxGeometry width="50" height="50" relative="1" as="geometry">
            <mxPoint x="820" y="780" as="sourcePoint" />
            <mxPoint x="1070" y="560" as="targetPoint" />
            <Array as="points">
              <mxPoint x="400" y="730" />
              <mxPoint x="830" y="730" />
            </Array>
          </mxGeometry>
        </mxCell>
        <mxCell id="HWcITHrnJIwptDQPcH0C-49" value="强制结束" style="edgeLabel;html=1;align=center;verticalAlign=middle;resizable=0;points=[];fontSize=24;" vertex="1" connectable="0" parent="HWcITHrnJIwptDQPcH0C-48">
          <mxGeometry x="-0.21" y="-1" relative="1" as="geometry">
            <mxPoint as="offset" />
          </mxGeometry>
        </mxCell>
        <mxCell id="HWcITHrnJIwptDQPcH0C-52" value="" style="ellipse;shape=cloud;whiteSpace=wrap;html=1;labelBackgroundColor=#ffffff;fontSize=24;" vertex="1" parent="1">
          <mxGeometry x="260" y="50" width="120" height="80" as="geometry" />
        </mxCell>
        <mxCell id="HWcITHrnJIwptDQPcH0C-53" value="指使用缓存的地方" style="text;html=1;strokeColor=none;fillColor=none;align=center;verticalAlign=middle;whiteSpace=wrap;rounded=0;labelBackgroundColor=#ffffff;fontSize=24;" vertex="1" parent="1">
          <mxGeometry x="390" y="75" width="210" height="35" as="geometry" />
        </mxCell>
      </root>
    </mxGraphModel>
  </diagram>
</mxfile>
